<?xml version="1.0" encoding="UTF-8"?>
<!DOCTYPE svg PUBLIC "-//W3C//DTD SVG 1.1//EN" "http://www.w3.org/Graphics/SVG/1.1/DTD/svg11.dtd">
<svg xmlns="http://www.w3.org/2000/svg" version="1.1" width="601px" height="601px" style="shape-rendering:geometricPrecision; text-rendering:geometricPrecision; image-rendering:optimizeQuality; fill-rule:evenodd; clip-rule:evenodd" xmlns:xlink="http://www.w3.org/1999/xlink">
<g><path style="opacity:0.978" fill="#059792" d="M 287.5,82.5 C 304.5,82.5 321.5,82.5 338.5,82.5C 328.324,169.24 317.657,255.907 306.5,342.5C 317.146,343.499 327.813,343.832 338.5,343.5C 324.72,391.677 310.22,439.677 295,487.5C 294.929,453.162 295.429,418.829 296.5,384.5C 282.167,384.5 267.833,384.5 253.5,384.5C 264.906,283.848 276.239,183.181 287.5,82.5 Z"/></g>
<g><path style="opacity:0.983" fill="#059792" d="M 134.5,149.5 C 151.167,149.5 167.833,149.5 184.5,149.5C 184.333,239.834 184.5,330.167 185,420.5C 204.76,421.327 224.594,421.827 244.5,422C 245.815,429.097 246.481,436.431 246.5,444C 246.492,451.41 246.159,458.743 245.5,466C 208.458,466.827 171.458,466.66 134.5,465.5C 133.169,360.098 133.169,254.765 134.5,149.5 Z"/></g>
<g><path style="opacity:0.984" fill="#059792" d="M 416.5,149.5 C 433.167,149.5 449.833,149.5 466.5,149.5C 466.667,254.834 466.5,360.167 466,465.5C 429.238,466.663 392.405,466.829 355.5,466C 355,465.5 354.5,465 354,464.5C 353.333,450.833 353.333,437.167 354,423.5C 354.5,423 355,422.5 355.5,422C 375.497,421.5 395.497,421.333 415.5,421.5C 415.169,330.763 415.503,240.096 416.5,149.5 Z"/></g>
</svg>
